<svg xmlns="http://www.w3.org/2000/svg" viewBox="0 0 1247.38 100"><defs><style>.cls-1{fill:#2c4a73;}.cls-2{fill:#04d99d;}</style></defs><g id="Layer_2" data-name="Layer 2"><g id="Layer_1-2" data-name="Layer 1"><path class="cls-1" d="M75,50A25,25,0,0,1,50,75H25V25H50a24.79,24.79,0,0,1,6.25.82A50.15,50.15,0,0,1,75,6.74,49.73,49.73,0,0,0,50,0H0V100H50A50,50,0,0,0,93.75,25.82,25,25,0,0,0,75,50Z"/><rect class="cls-1" x="150" y="75" width="25" height="25"/><path class="cls-2" d="M100,75a24.79,24.79,0,0,1-6.25-.82A50.22,50.22,0,0,1,75,93.26,49.73,49.73,0,0,0,100,100h25V75Z"/><path class="cls-2" d="M100,0A50,50,0,0,0,50,50h0a49.74,49.74,0,0,0,6.25,24.18A25,25,0,0,0,75,50h0a25,25,0,0,1,25-25h25V0Z"/><path class="cls-1" d="M200,76.85V23h21.23c16.89,0,28.59,10.74,28.59,27s-11.7,26.89-28.59,26.89ZM238.12,50c0-9.53-5.82-16.87-16.89-16.87h-9.76V66.75h9.76C231.9,66.75,238.12,59.08,238.12,50Z"/><path class="cls-1" d="M258,76.85V23h11.47V76.85Z"/><path class="cls-1" d="M277.55,50c0-17,12.92-27.86,28.67-27.86,11.22,0,18.24,5.66,22.28,12L319,39.3a15.28,15.28,0,0,0-12.76-7c-9.77,0-16.88,7.51-16.88,17.68s7.11,17.68,16.88,17.68a18.18,18.18,0,0,0,11.46-4.11V57.06h-14.2v-10h25.67V67.72A29.88,29.88,0,0,1,306.22,77.9C290.47,77.9,277.55,66.91,277.55,50Z"/><path class="cls-1" d="M338.3,76.85V23h11.46V76.85Z"/><path class="cls-1" d="M372.87,76.85V33.09H357.12V23h42.95v10.1H384.42V76.85Z"/><path class="cls-1" d="M439.41,76.85l-3.3-9.13H413l-3.39,9.13H396.54L417.38,23h14.37L452.5,76.85ZM424.56,34.46l-8.39,23.17H433Z"/><path class="cls-1" d="M457.53,76.85V23H469V66.75h22.77v10.1Z"/><path class="cls-2" d="M495,50c0-16.55,12.51-27.86,28.66-27.86,11.86,0,18.72,6.47,22.52,13.16l-9.85,4.85a14.58,14.58,0,0,0-12.67-7.83c-9.77,0-16.88,7.51-16.88,17.68s7.11,17.68,16.88,17.68a14.43,14.43,0,0,0,12.67-7.83l9.85,4.76c-3.88,6.71-10.66,13.24-22.52,13.24C507.53,77.81,495,66.51,495,50Z"/><path class="cls-2" d="M550.52,50c0-16.23,11.86-27.86,28.09-27.86S606.79,33.73,606.79,50s-11.87,27.85-28.18,27.85S550.52,66.19,550.52,50ZM595,50c0-10.09-6.46-17.68-16.39-17.68S562.3,39.87,562.3,50s6.38,17.68,16.31,17.68S595,60,595,50Z"/><path class="cls-2" d="M661.72,76.85V39.14L646.55,76.85h-5L626.36,39.14V76.85H614.89V23H631L644,55.53,657.12,23h16.15V76.85Z"/><path class="cls-2" d="M730.79,76.85V39.14L715.62,76.85h-5L695.43,39.14V76.85H684V23H700L713.1,55.53,726.19,23h16.14V76.85Z"/><path class="cls-2" d="M750.44,50c0-16.23,11.88-27.86,28.1-27.86S806.72,33.73,806.72,50s-11.87,27.85-28.18,27.85S750.44,66.19,750.44,50Zm44.49,0c0-10.09-6.46-17.68-16.39-17.68S762.23,39.87,762.23,50s6.39,17.68,16.31,17.68S794.93,60,794.93,50Z"/><path class="cls-2" d="M814.83,76.85V23h21.24c16.86,0,28.57,10.74,28.57,27s-11.71,26.89-28.57,26.89ZM852.93,50c0-9.53-5.81-16.87-16.86-16.87H826.3V66.75h9.77C846.72,66.75,852.93,59.08,852.93,50Z"/><path class="cls-2" d="M872.83,76.85V23h11.46V76.85Z"/><path class="cls-2" d="M895,76.85V23h38.11v10.1H906.43V44.47h26.08V54.56H906.43V76.85Z"/><path class="cls-2" d="M941.09,76.85V23h11.46V76.85Z"/><path class="cls-2" d="M960.64,50c0-16.55,12.51-27.86,28.66-27.86,11.87,0,18.73,6.47,22.53,13.16L1002,40.11a14.58,14.58,0,0,0-12.67-7.83c-9.77,0-16.88,7.51-16.88,17.68s7.11,17.68,16.88,17.68A14.43,14.43,0,0,0,1002,59.81l9.86,4.76c-3.88,6.71-10.66,13.24-22.53,13.24C973.15,77.81,960.64,66.51,960.64,50Z"/><path class="cls-2" d="M1055.3,76.85,1052,67.72H1028.9l-3.4,9.13h-13.08L1033.25,23h14.37l20.75,53.86Zm-14.86-42.39L1032,57.63h16.79Z"/><path class="cls-2" d="M1080.67,76.85V33.09h-15.74V23h43v10.1h-15.66V76.85Z"/><path class="cls-2" d="M1115.25,76.85V23h11.47V76.85Z"/><path class="cls-2" d="M1134.8,50c0-16.23,11.87-27.86,28.1-27.86s28.18,11.63,28.18,27.86-11.88,27.85-28.18,27.85S1134.8,66.19,1134.8,50Zm44.48,0c0-10.09-6.45-17.68-16.38-17.68s-16.32,7.59-16.32,17.68,6.39,17.68,16.32,17.68S1179.28,60,1179.28,50Z"/><path class="cls-2" d="M1236.32,76.85l-25.67-35.12V76.85h-11.47V23H1211l25,33.83V23h11.46V76.85Z"/></g></g></svg>