<?xml version="1.0" encoding="utf-8"?>
<!-- Generator: Adobe Illustrator 24.1.2, SVG Export Plug-In . SVG Version: 6.00 Build 0)  -->
<svg version="1.1" id="Calque_1" xmlns="http://www.w3.org/2000/svg" xmlns:xlink="http://www.w3.org/1999/xlink" x="0px" y="0px"
	 viewBox="0 0 200 200" style="enable-background:new 0 0 200 200;" xml:space="preserve">
<style type="text/css">
	.st0{display:none;}
	.st1{fill:none;stroke:#6E9ECE;stroke-width:3;stroke-miterlimit:10;}
	.st2{fill:none;stroke:#04D99D;stroke-width:3.0001;stroke-linecap:round;stroke-linejoin:round;stroke-miterlimit:10.0003;}
	.st3{fill:none;stroke:#04D99D;stroke-width:3;stroke-linecap:round;stroke-linejoin:round;stroke-miterlimit:10;}
	.st4{fill:none;stroke:#2C4A73;stroke-width:2;stroke-linecap:round;stroke-miterlimit:10;}
	.st5{fill:none;stroke:#6E9ECE;stroke-width:2;stroke-miterlimit:10;}
</style>
<g id="Layer_1_1_">
	<g id="XMLID_36_" class="st0">
	</g>
</g>
<g id="eye-close_1_">
</g>
<g id="eye-reader_1_">
</g>
<g id="thump-block_1_">
</g>
<g id="thump-locker_1_">
</g>
<g id="locker-block_1_">
</g>
<g id="locker-large_1_">
</g>
<g id="locker-no_1_">
</g>
<g id="locker-2_1_">
</g>
<g id="partsal-2_1_">
</g>
<g id="partsal_1_">
</g>
<g id="wallet-close_1_">
</g>
<g id="XMLID_33_">
	<path id="XMLID_35_" class="st1" d="M132.6,82.9V71c0-2.9-2.7-5.2-5.6-4.6L54.3,81.8c-2.2,0.5-3.7,2.4-3.7,4.6v71.3
		c0,2.6,2.1,4.7,4.7,4.7h53.9"/>
	<path id="XMLID_34_" class="st1" d="M149,127.2V89.9c0-2.6-2.1-4.7-4.7-4.7H52.9"/>
</g>
<ellipse id="XMLID_32_" transform="matrix(4.531319e-02 -0.999 0.999 4.531319e-02 -21.3407 264.8623)" class="st2" cx="127.9" cy="143.6" rx="25.8" ry="25.8"/>
<polyline id="XMLID_31_" class="st3" points="116.2,146 123.2,153 142,136.6 "/>
<g id="wallet-notify_1_">
</g>
<g id="wallet-add_1_">
</g>
<g id="wallet-1_1_">
</g>
<g id="wallet_1_">
</g>
<g id="files-3_1_">
</g>
<g id="dollar-bill_1_">
</g>
<g id="report-up_1_">
</g>
<g id="report-down_1_">
</g>
<g id="progress-bar-1_1_">
</g>
<g id="progres-bar_1_">
</g>
<g id="save-dollar_1_">
</g>
<g id="save_1_">
</g>
<g id="cash_1_">
</g>
<g id="report_1_">
</g>
<g id="report-1_1_">
</g>
<g id="bank-1_1_">
</g>
<g id="locker_1_">
</g>
<g id="bank-2_1_">
</g>
<g id="bank_1_">
</g>
<g id="shopping-bag_3_">
</g>
<g id="card-cart_2_">
</g>
<g id="fill-cart_1_">
</g>
<g id="cart_1_">
</g>
<g id="card-reload_1_">
</g>
<g id="card-unloack_1_">
</g>
<g id="card-lock_1_">
</g>
<g id="card-close_1_">
</g>
<g id="card-pass_1_">
</g>
<g id="signature_1_">
</g>
<g id="secreat-number_1_">
</g>
<g id="credit-card_1_">
</g>
<g id="amex-card_1_">
</g>
<g id="visa-card_1_">
</g>
<g id="brocken-card_1_">
</g>
<g id="code-card_1_">
</g>
<g id="card_1_">
</g>
<g id="single-delivery_1_">
</g>
<g id="delivery_1_">
</g>
<g id="vehicle_1_">
</g>
<g id="truck_1_">
</g>
<g id="hundred_1_">
</g>
<g id="percentage_1_">
</g>
<g id="offer-dollar_1_">
</g>
<g id="dollar_3_">
</g>
<g id="dollar-out_1_">
</g>
<g id="dollar-in_1_">
</g>
<g id="money-exchange-2_1_">
</g>
<g id="money-exchange_1_">
</g>
<g id="money-rotate-2_1_">
</g>
<g id="money-rotate_1_">
</g>
<g id="mocey-bag_1_">
</g>
<g id="currency-ten_1_">
</g>
<g id="currency-one_1_">
</g>
<g id="currency-head_1_">
</g>
<g id="currency-bitcoin_1_">
</g>
<g id="currency_5_">
</g>
<g id="currency_4_">
</g>
<g id="currency-2_1_">
</g>
<g id="coin-4_3_">
</g>
<g id="coin-3_1_">
</g>
<g id="coin-1_1_">
</g>
<g id="coin-2_1_">
</g>
<g id="coins-s_1_">
</g>
<g id="doller-q-2_1_">
</g>
<g id="coins-q_1_">
</g>
<g id="dollers-2_1_">
</g>
<g id="dollers-1_1_">
</g>
<g id="dollers_1_">
</g>
<g id="dollar_2_">
</g>
<g id="coins_1_">
</g>
<g id="coin_1_">
</g>
<g id="offer-bag_1_">
</g>
<g id="shopping-bag_2_">
</g>
<g id="s-calculater_1_">
</g>
<g id="calculater_1_">
</g>
<g id="into-divider_1_">
</g>
<g id="add-minus_1_">
</g>
<g id="digital-calculater_1_">
</g>
<g id="adding_1_">
</g>
<g id="galexy_1_">
</g>
<g id="abacus_1_">
</g>
<g id="coin-4_2_">
</g>
<g id="bitcoin_1_">
</g>
<g id="currency_3_">
</g>
<g id="currency-100_1_">
</g>
<g id="dollar-bag_1_">
</g>
<g id="files_1_">
</g>
<g id="files-2_1_">
</g>
<path id="XMLID_1_" class="st4" d="M47.6,54.4l3,1.3c0.1,0.1,0.3,0,0.4,0l2.8-1.7c0.3-0.2,0.6,0.1,0.6,0.4L54,57.6
	c0,0.1,0,0.3,0.1,0.3l2.4,2.1c0.2,0.2,0.1,0.6-0.2,0.7l-3.2,0.6c-0.1,0-0.2,0.1-0.3,0.2l-1.3,3c-0.1,0.3-0.5,0.3-0.7,0l-1.6-2.8
	c-0.1-0.1-0.2-0.2-0.3-0.2l-3.2-0.3c-0.3,0-0.5-0.4-0.3-0.6l2.2-2.4c0.1-0.1,0.1-0.2,0.1-0.3L47,54.7C47,54.6,47.3,54.3,47.6,54.4z"
	/>
<path id="XMLID_4_" class="st5" d="M58.9,46.7l-1.7-1.8c-0.1-0.1-0.2-0.1-0.3-0.1l-2.5,0.4c-0.2,0-0.4-0.2-0.3-0.4l1.2-2.2
	c0-0.1,0-0.2,0-0.3l-1.1-2.2c-0.1-0.2,0.1-0.5,0.3-0.4l2.4,0.4c0.1,0,0.2,0,0.3-0.1l1.8-1.8c0.2-0.2,0.5-0.1,0.5,0.2l0.3,2.5
	c0,0.1,0.1,0.2,0.2,0.2l2.2,1.1c0.2,0.1,0.2,0.4,0,0.5L60,43.8c-0.1,0-0.1,0.1-0.2,0.2l-0.4,2.5C59.3,46.8,59,46.9,58.9,46.7z"/>
<path id="XMLID_3_" class="st5" d="M75.1,36.8l3.9,1.8c0.2,0.1,0.3,0.1,0.5,0l3.7-2.2c0.4-0.2,0.8,0.1,0.8,0.5l-0.5,4.2
	c0,0.2,0,0.3,0.2,0.4l3.2,2.8c0.3,0.3,0.2,0.8-0.2,0.9L82.5,46c-0.2,0-0.3,0.1-0.4,0.3l-1.7,3.9c-0.2,0.4-0.7,0.4-0.9,0.1l-2.1-3.7
	c-0.1-0.1-0.2-0.2-0.4-0.3L72.7,46c-0.4,0-0.6-0.5-0.3-0.9l2.9-3.1c0.1-0.1,0.2-0.3,0.1-0.5l-1-4.2C74.3,36.9,74.7,36.6,75.1,36.8z"
	/>
</svg>
