<?xml version="1.0" encoding="utf-8"?>
<!-- Generator: Adobe Illustrator 24.1.2, SVG Export Plug-In . SVG Version: 6.00 Build 0)  -->
<svg version="1.1" id="Layer_1" xmlns="http://www.w3.org/2000/svg" xmlns:xlink="http://www.w3.org/1999/xlink" x="0px" y="0px"
	 viewBox="0 0 175 100" style="enable-background:new 0 0 175 100;" xml:space="preserve">
<style type="text/css">
	.st0{fill:#8D8D8D;}
</style>
<g id="Layer_2_1_">
	<g id="Layer_1-2">
		<path class="st0" d="M75,50c0,13.8-11.2,25-25,25H25V25h25c2.1,0,4.2,0.3,6.3,0.8C60.7,17.9,67.1,11.3,75,6.7
			C67.4,2.3,58.8,0,50,0H0v100h50c27.6,0,50-22.4,50-50c0-8.5-2.1-16.8-6.2-24.2C82.7,28.7,75,38.6,75,50z"/>
		<rect x="150" y="75" class="st0" width="25" height="25"/>
		<path class="st0" d="M100,75c-2.1,0-4.2-0.3-6.3-0.8C89.3,82.1,82.9,88.7,75,93.3c7.6,4.4,16.2,6.7,25,6.7h25V75H100z"/>
		<path class="st0" d="M100,0C72.4,0,50,22.4,50,50l0,0c0,8.5,2.1,16.8,6.3,24.2C67.3,71.3,75,61.4,75,50l0,0c0-13.8,11.2-25,25-25
			h25V0H100z"/>
	</g>
</g>
</svg>
