<?xml version="1.0" encoding="utf-8"?>
<!-- Generator: Adobe Illustrator 24.1.2, SVG Export Plug-In . SVG Version: 6.00 Build 0)  -->
<svg version="1.1" id="Calque_1" xmlns="http://www.w3.org/2000/svg" xmlns:xlink="http://www.w3.org/1999/xlink" x="0px" y="0px"
	 viewBox="0 0 200 200" style="enable-background:new 0 0 200 200;" xml:space="preserve">
<style type="text/css">
	.st0{display:none;}
	.st1{fill:#6E9ECE;}
	.st2{fill:#FFFFFF;}
	.st3{fill:#2C4A73;}
	.st4{fill:#04D99D;}
</style>
<g id="Layer_1_4_">
	<g id="XMLID_79_" class="st0">
	</g>
</g>
<g id="eye-close_4_">
</g>
<g id="eye-reader_4_">
</g>
<g id="thump-block_4_">
</g>
<g id="thump-locker_4_">
</g>
<g id="locker-block_4_">
</g>
<g id="locker-large_4_">
</g>
<g id="locker-no_4_">
</g>
<g id="locker-2_4_">
</g>
<g id="partsal-2_4_">
</g>
<g id="partsal_4_">
</g>
<g id="wallet-close_4_">
</g>
<g id="wallet-check_4_">
</g>
<g id="wallet-notify_4_">
</g>
<g id="wallet-add_4_">
</g>
<g id="wallet-1_4_">
</g>
<g id="wallet_4_">
</g>
<g id="files-3_4_">
</g>
<g id="dollar-bill_4_">
</g>
<g id="report-up_4_">
</g>
<g id="report-down_4_">
</g>
<g id="progress-bar-1_4_">
</g>
<g id="progres-bar_4_">
</g>
<g id="save-dollar_4_">
</g>
<g id="save_4_">
</g>
<g id="cash_4_">
</g>
<g id="report_4_">
</g>
<g id="report-1_4_">
</g>
<g id="bank-1_4_">
</g>
<g id="locker_4_">
</g>
<g id="bank-2_4_">
</g>
<g id="shopping-bag_9_">
</g>
<g id="card-cart_5_">
</g>
<g id="fill-cart_4_">
</g>
<g id="cart_4_">
</g>
<g id="card-reload_4_">
</g>
<g id="card-unloack_4_">
</g>
<g id="card-lock_4_">
</g>
<g id="card-close_4_">
</g>
<g id="card-pass_4_">
</g>
<g id="signature_4_">
</g>
<g id="secreat-number_4_">
</g>
<g id="credit-card_4_">
</g>
<g id="amex-card_4_">
</g>
<g id="visa-card_4_">
</g>
<g id="brocken-card_4_">
</g>
<g id="code-card_4_">
</g>
<g id="card_4_">
</g>
<g id="single-delivery_4_">
</g>
<g id="delivery_4_">
</g>
<g id="vehicle_4_">
</g>
<g id="truck_4_">
</g>
<g id="hundred_4_">
</g>
<g id="percentage_4_">
</g>
<g id="offer-dollar_4_">
</g>
<g id="dollar_9_">
</g>
<g id="dollar-out_4_">
</g>
<g id="dollar-in_4_">
</g>
<g id="money-exchange-2_4_">
</g>
<g id="money-exchange_4_">
</g>
<g id="money-rotate-2_4_">
</g>
<g id="money-rotate_4_">
</g>
<g id="mocey-bag_4_">
</g>
<g id="currency-ten_4_">
</g>
<g id="currency-one_4_">
</g>
<g id="currency-head_4_">
</g>
<g id="currency-bitcoin_4_">
</g>
<g id="currency_14_">
</g>
<g id="currency_13_">
</g>
<g id="currency-2_4_">
</g>
<g id="coin-4_9_">
</g>
<g id="coin-3_4_">
</g>
<g id="coin-1_4_">
</g>
<g id="coin-2_4_">
</g>
<g id="coins-s_4_">
</g>
<g id="doller-q-2_4_">
</g>
<g id="coins-q_4_">
</g>
<g id="dollers-2_4_">
</g>
<g id="dollers-1_4_">
</g>
<g id="dollers_4_">
</g>
<g id="dollar_8_">
</g>
<g id="coins_4_">
</g>
<g id="coin_4_">
</g>
<g id="offer-bag_4_">
</g>
<g id="shopping-bag_8_">
</g>
<g id="s-calculater_4_">
</g>
<g id="calculater_4_">
</g>
<g id="into-divider_4_">
</g>
<g id="add-minus_4_">
</g>
<g id="digital-calculater_4_">
</g>
<g id="adding_4_">
</g>
<g id="galexy_4_">
</g>
<g id="abacus_4_">
</g>
<g id="coin-4_8_">
</g>
<g id="bitcoin_4_">
</g>
<g id="currency_12_">
</g>
<g id="currency-100_4_">
</g>
<g id="dollar-bag_4_">
</g>
<g id="files_4_">
</g>
<path class="st1" d="M148.3,131.3H50.5c-1.1,0-1.9-0.8-1.9-1.9V72.8c0-5.3,4.2-9.5,9.5-9.5h82.6c5.3,0,9.5,4.2,9.5,9.5v56.7
	C150.2,130.6,149.2,131.3,148.3,131.3z M52.4,127.6h94V72.8c0-3.2-2.5-5.7-5.7-5.7H58c-3.2,0-5.7,2.5-5.7,5.7L52.4,127.6L52.4,127.6
	z"/>
<g>
	<rect x="58" y="72.8" class="st2" width="82.6" height="49.1"/>
	<path class="st2" d="M50.5,129.5v8.3c0,4.2,3.4,7.6,7.6,7.6h82.6c4.2,0,7.6-3.4,7.6-7.6v-8.3H50.5z"/>
</g>
<g>
	<path class="st1" d="M140.7,147.5H58c-5.3,0-9.5-4.2-9.5-9.5v-8.3c0-1.1,0.8-1.9,1.9-1.9h97.8c1.1,0,1.9,0.8,1.9,1.9v8.3
		C150.2,143.1,145.8,147.5,140.7,147.5z M52.4,131.3v6.4c0,3.2,2.5,5.7,5.7,5.7h82.6c3.2,0,5.7-2.5,5.7-5.7v-6.4H52.4z"/>
	<path class="st1" d="M112.8,160.9L112.8,160.9H85.9c-0.6,0-1.1-0.4-1.5-0.8c-0.4-0.6-0.4-1.1-0.2-1.7l5.5-13.5
		c0.4-0.8,0.9-1.1,1.7-1.1h15.9c0.8,0,1.5,0.4,1.7,1.1l5.5,13.3c0.2,0.4,0.4,0.6,0.4,1.1C114.7,160.2,114,160.9,112.8,160.9z
		 M88.6,157.1H110l-4-9.7H92.5L88.6,157.1z"/>
</g>
<path class="st1" d="M115.9,160.9h-33c-1.1,0-1.9-0.8-1.9-1.9c0-1.1,0.8-1.9,1.9-1.9h33c1.1,0,1.9,0.8,1.9,1.9
	C117.7,160.2,117,160.9,115.9,160.9z"/>
<rect x="66.4" y="94.6" class="st2" width="13.1" height="13.1"/>
<path class="st3" d="M79.7,109.7H66.4c-1.1,0-1.9-0.8-1.9-1.9v-13c0-1.1,0.8-1.9,1.9-1.9h13.1c1.1,0,1.9,0.8,1.9,1.9v13.1
	C81.5,108.8,80.6,109.7,79.7,109.7z M66.4,107.9h13.1V94.6H66.4V107.9z"/>
<path class="st3" d="M106.1,109.7H92.8c-1.1,0-1.9-0.8-1.9-1.9v-13c0-1.1,0.8-1.9,1.9-1.9h13.1c1.1,0,1.9,0.8,1.9,1.9v13.1
	C108,108.8,107,109.7,106.1,109.7z M92.8,107.9h13.1V94.6H92.8V107.9z"/>
<rect x="92.7" y="94.6" class="st2" width="13.1" height="13.1"/>
<rect x="119.1" y="94.6" class="st2" width="13.1" height="13.1"/>
<path class="st3" d="M79.7,117.3H66.4c-1.1,0-1.9-0.8-1.9-1.9s0.8-1.9,1.9-1.9h13.1c1.1,0,1.9,0.8,1.9,1.9
	C81.4,116.6,80.6,117.3,79.7,117.3z"/>
<path class="st3" d="M106,117.3H92.9c-1.1,0-1.9-0.8-1.9-1.9s0.8-1.9,1.9-1.9H106c1.1,0,1.9,0.8,1.9,1.9
	C107.9,116.6,106.9,117.3,106,117.3z"/>
<g>
	<path class="st3" d="M132.3,117.3h-13.1c-1.1,0-1.9-0.8-1.9-1.9s0.8-1.9,1.9-1.9h13.1c1.1,0,1.9,0.8,1.9,1.9
		C134.2,116.6,133.3,117.3,132.3,117.3z"/>
	<rect x="86.3" y="135.5" class="st3" width="3.8" height="3.8"/>
	<rect x="97.5" y="135.5" class="st3" width="3.8" height="3.8"/>
	<rect x="108.6" y="135.5" class="st3" width="3.8" height="3.8"/>
</g>
<path class="st2" d="M106,74.5l2.8-6.3l-4.4-2.5c0.4-1.7,0.4-3.4,0.2-4.9l4.5-2.3l-2.3-6.4l-4.9,1.1c-0.9-1.3-2.1-2.7-3.4-3.6
	l1.5-4.7l-6.3-2.8l-2.5,4.2c-1.7-0.4-3.4-0.4-4.9-0.2L84,41.6l-6.4,2.3l1.1,4.9c-1.3,0.9-2.7,2.1-3.6,3.4l-4.9-1.5L67.4,57l4.4,2.7
	c-0.4,1.7-0.4,3.4-0.2,4.9l-4.5,2.3l2.3,6.4l4.9-1.1c0.9,1.3,2.1,2.7,3.4,3.6l-1.5,4.7l6.3,2.8l2.7-4.4c1.7,0.4,3.4,0.4,4.9,0.2
	l2.3,4.5l6.4-2.3l-1.1-4.9c1.3-0.9,2.7-2.1,3.6-3.4L106,74.5z"/>
<path class="st3" d="M92.3,85.5c-0.8,0-1.3-0.4-1.7-0.9l-1.7-3.4c-0.9,0-1.9,0-2.8-0.2L84,84.2c-0.6,0.8-1.5,1.1-2.5,0.8l-6.3-2.8
	c-0.9-0.4-1.3-1.3-0.9-2.3l1.1-3.6c-0.8-0.6-1.3-1.3-1.9-2.1l-3.8,0.9c-0.9,0.2-1.9-0.4-2.3-1.1l-2.3-6.4c-0.4-0.9,0-1.9,0.9-2.3
	l3.4-1.7c0-0.9,0-1.9,0.2-2.8l-3.2-2.3c-0.8-0.6-1.1-1.5-0.8-2.5l2.8-6.3c0.4-0.9,1.3-1.3,2.3-0.9l3.6,1.1c0.6-0.8,1.3-1.3,2.1-1.9
	l-0.9-3.8c-0.2-0.9,0.4-1.9,1.1-2.3l6.4-2.3c0.9-0.4,1.9,0,2.3,0.9l1.9,3.4c0.9,0,1.9,0,2.8,0.2l2.1-3.2c0.6-0.8,1.5-1.1,2.5-0.8
	l6.3,2.8c0.9,0.4,1.3,1.3,0.9,2.3l-1.3,3.6c0.8,0.6,1.3,1.3,1.9,2.1l3.8-0.9c0.9-0.2,1.9,0.4,2.3,1.1l2.3,6.4c0.4,0.9,0,1.9-0.9,2.3
	l-3.4,1.7c0,0.9,0,1.9-0.2,2.8l3.2,2.1c0.8,0.6,1.1,1.5,0.8,2.5l-2.8,6.3c-0.4,0.9-1.3,1.3-2.3,0.9l-3.6-1.1
	c-0.6,0.8-1.3,1.3-2.1,1.9l0.9,3.8c0.2,0.9-0.4,1.9-1.1,2.3l-6.4,2.3C92.7,85.5,92.5,85.5,92.3,85.5z M89.9,77.1
	c0.8,0,1.3,0.4,1.7,0.9l1.5,3l3.2-1.1l-0.8-3.2c-0.2-0.8,0.2-1.5,0.8-2.1c1.1-0.8,2.3-1.9,3.2-3c0.6-0.6,1.3-0.9,2.1-0.6l3.2,0.9
	l1.5-3l-2.8-1.7c-0.8-0.4-0.9-1.1-0.9-1.9c0.2-1.5,0.4-2.8,0.2-4.4c0-0.8,0.4-1.5,0.9-1.9l3-1.5l-1.1-3.2l-3.2,0.8
	c-0.8,0.2-1.5-0.2-2.1-0.8c-0.8-1.1-1.9-2.3-3-3.2c-0.6-0.6-0.9-1.3-0.6-2.1l0.9-3.2l-3-1.5l-1.7,2.8C92.5,47.9,91.8,48,91,48
	c-1.5-0.2-2.8-0.4-4.4-0.2c-0.8,0-1.5-0.4-1.9-0.9l-1.5-3L79.8,45l0.8,3.2c0.2,0.8-0.2,1.5-0.8,2.1c-1.1,0.8-2.3,1.9-3.2,3
	C76,54,75.3,54.4,74.5,54l-3.2-0.9l-1.5,3l2.8,1.7c0.8,0.4,0.9,1.1,0.9,1.9c-0.2,1.5-0.4,2.8-0.2,4.4c0,0.8-0.4,1.5-0.9,1.9l-3,1.5
	l1.1,3.2l3.2-0.8c0.8-0.2,1.5,0.2,2.1,0.8c0.8,1.1,1.9,2.3,3,3.2c0.6,0.6,0.9,1.3,0.6,2.1l-0.9,3.2l3,1.5l1.7-2.8
	c0.4-0.8,1.1-0.9,1.9-0.9c1.5,0.2,2.8,0.4,4.4,0.2C89.9,77.1,89.9,77.1,89.9,77.1z"/>
<circle class="st2" cx="88.2" cy="62.5" r="4.7"/>
<path class="st3" d="M88.2,69.2c-0.9,0-1.9-0.2-2.8-0.6c-1.5-0.8-2.8-2.1-3.4-3.8c-0.6-1.7-0.6-3.4,0.2-5.1c1.1-2.3,3.4-3.8,6.1-3.8
	c0.9,0,1.9,0.2,2.8,0.6c3.2,1.5,4.7,5.5,3.2,8.7C93.1,67.7,90.6,69.2,88.2,69.2z M88.2,59.7c-1.1,0-2.1,0.6-2.7,1.7
	c-0.4,0.8-0.4,1.5,0,2.1s0.8,1.3,1.5,1.5c1.3,0.6,3,0,3.8-1.3c0.6-1.3,0-3-1.3-3.8C88.9,59.9,88.6,59.7,88.2,59.7z"/>
<path class="st2" d="M164.2,72.2v-7.4l-5.5-0.6c-0.4-1.7-1.1-3.4-2.1-4.9L160,55l-5.1-5.1l-4.4,3.4c-1.5-0.9-3.2-1.5-4.9-2.1
	l-0.6-5.5h-7.4l-0.6,5.5c-1.7,0.4-3.4,1.1-4.9,2.1l-4.4-3.4l-5.1,5.1l3.4,4.4c-0.9,1.5-1.5,3.2-2.1,4.9l-5.5,0.6v7.4l5.5,0.6
	c0.4,1.7,1.1,3.4,2.1,4.9l-3.4,4.4l5.1,5.1l4.4-3.4c1.5,0.9,3.2,1.5,4.9,2.1l0.6,5.5h7.4l0.6-5.5c1.7-0.4,3.4-1.1,4.9-2.1l4.4,3.4
	l5.1-5.1l-3.4-4.4c0.9-1.5,1.5-3.2,2.1-4.9L164.2,72.2z"/>
<path class="st4" d="M145,93.3h-7.4c-0.9,0-1.7-0.8-1.9-1.7l-0.6-4.2c-0.9-0.4-2.1-0.8-3-1.3l-3.2,2.7c-0.8,0.6-1.9,0.6-2.5-0.2
	l-5.1-5.1c-0.8-0.8-0.8-1.7-0.2-2.5l2.7-3.2c-0.6-0.9-0.9-1.9-1.3-3l-4.2-0.6c-0.9-0.2-1.7-0.9-1.7-1.9v-7.4c0-0.9,0.8-1.7,1.7-1.9
	l4.2-0.6c0.4-0.9,0.8-2.1,1.3-3l-2.7-3.2c-0.6-0.8-0.6-1.9,0.2-2.5l5.1-5.1c0.8-0.8,1.7-0.8,2.5-0.2l3.2,2.7c0.9-0.6,1.9-0.9,3-1.3
	l0.6-4.2c0.2-0.9,0.9-1.7,1.9-1.7h7.4c0.9,0,1.7,0.8,1.9,1.7l0.6,4.2c0.9,0.4,2.1,0.8,3,1.3l3.2-2.7c0.8-0.6,1.9-0.6,2.5,0.2
	l5.1,5.1c0.8,0.8,0.8,1.7,0.2,2.5l-2.7,3.4c0.6,0.9,0.9,1.9,1.3,3l4.2,0.6c0.9,0.2,1.7,0.9,1.7,1.9v7.4c0,0.9-0.8,1.7-1.7,1.9
	l-4.2,0.4c-0.4,0.9-0.8,2.1-1.3,3l2.7,3.2c0.6,0.8,0.6,1.9-0.2,2.5l-5.1,5.1c-0.8,0.8-1.7,0.8-2.5,0.2l-3.4-2.7
	c-0.9,0.6-1.9,0.9-3,1.3l-0.6,4.2C146.7,92.5,146,93.3,145,93.3z M139.4,89.5h4l0.4-3.8c0.2-0.8,0.6-1.5,1.5-1.7
	c1.5-0.4,3-0.9,4.4-1.9c0.8-0.4,1.5-0.4,2.1,0.2l3,2.3l2.8-2.8l-2.3-3c-0.6-0.6-0.6-1.5-0.2-2.1c0.8-1.3,1.5-2.8,1.9-4.4
	c0.2-0.8,0.8-1.3,1.7-1.5l3.8-0.4v-4l-3.8-0.4c-0.8-0.2-1.5-0.6-1.7-1.5c-0.4-1.5-0.9-3-1.9-4.4c-0.4-0.8-0.4-1.5,0.2-2.1l2.3-2.8
	l-2.8-2.8l-3,2.3c-0.6,0.6-1.5,0.6-2.1,0.2c-1.3-0.8-2.8-1.5-4.4-1.9c-0.8-0.2-1.3-0.8-1.5-1.7l-0.4-3.8h-4l-0.4,3.8
	c-0.2,0.8-0.6,1.5-1.5,1.7c-1.5,0.4-3,0.9-4.4,1.9c-0.8,0.4-1.5,0.4-2.1-0.2l-3-2.3l-2.8,2.8l2.3,3c0.6,0.6,0.6,1.5,0.2,2.1
	c-0.8,1.3-1.5,2.8-1.9,4.4c-0.2,0.8-0.8,1.3-1.7,1.5l-3.8,0.4v4l3.8,0.4c0.8,0,1.5,0.6,1.7,1.5c0.4,1.5,0.9,3,1.9,4.4
	c0.4,0.8,0.4,1.5-0.2,2.1l-2.3,3l2.8,2.8l3-2.3c0.6-0.6,1.5-0.6,2.1-0.2c1.3,0.8,2.8,1.5,4.4,1.9c0.8,0.2,1.3,0.8,1.5,1.7
	L139.4,89.5z"/>
<circle class="st2" cx="141.2" cy="68.6" r="5.1"/>
<path class="st4" d="M141.2,75.4c-3.8,0-7-3-7-7c0-3.8,3-7,7-7c3.8,0,7,3,7,7C148.3,72.4,145.2,75.4,141.2,75.4z M141.2,65.4
	c-1.7,0-3.2,1.5-3.2,3.2s1.5,3.2,3.2,3.2s3.2-1.5,3.2-3.2C144.5,66.7,143.1,65.4,141.2,65.4z"/>
</svg>
